<mxfile host="app.diagrams.net" modified="2020-04-03T13:23:48.532Z" agent="5.0 (Windows NT 10.0; Win64; x64) AppleWebKit/537.36 (KHTML, like Gecko) Chrome/83.0.4090.0 Safari/537.36 Edg/83.0.467.0" etag="H_F7ptGXWa-S0Nd3UfXj" version="12.9.6" type="github">
  <diagram id="_5CkWuqMf3LJzgiGWqKs" name="Page-1">
    <mxGraphModel dx="898" dy="482" grid="1" gridSize="10" guides="1" tooltips="1" connect="1" arrows="1" fold="1" page="1" pageScale="1" pageWidth="850" pageHeight="1100" math="0" shadow="0">
      <root>
        <mxCell id="0" />
        <mxCell id="1" parent="0" />
        <mxCell id="XMBS7pqL-egp5hLZ02eN-5" value="" style="edgeStyle=orthogonalEdgeStyle;rounded=0;orthogonalLoop=1;jettySize=auto;html=1;fontFamily=Times New Roman;fontStyle=1;fontSize=15;" parent="1" source="XMBS7pqL-egp5hLZ02eN-1" target="XMBS7pqL-egp5hLZ02eN-4" edge="1">
          <mxGeometry relative="1" as="geometry" />
        </mxCell>
        <mxCell id="XMBS7pqL-egp5hLZ02eN-1" value="SAR高度计L1A数据" style="shape=process;whiteSpace=wrap;html=1;backgroundOutline=1;fontFamily=Times New Roman;fontStyle=1;fontSize=15;" parent="1" vertex="1">
          <mxGeometry x="49" y="30" width="140" height="60" as="geometry" />
        </mxCell>
        <mxCell id="XMBS7pqL-egp5hLZ02eN-7" value="" style="edgeStyle=orthogonalEdgeStyle;rounded=0;orthogonalLoop=1;jettySize=auto;html=1;fontFamily=Times New Roman;fontStyle=1;fontSize=15;" parent="1" source="XMBS7pqL-egp5hLZ02eN-4" target="XMBS7pqL-egp5hLZ02eN-6" edge="1">
          <mxGeometry relative="1" as="geometry" />
        </mxCell>
        <mxCell id="XMBS7pqL-egp5hLZ02eN-4" value="系统参数校正、Hamming窗加权、热噪声估计、地面格网加密" style="rounded=0;whiteSpace=wrap;html=1;fontFamily=Times New Roman;fontStyle=1;fontSize=15;" parent="1" vertex="1">
          <mxGeometry x="34" y="120" width="170" height="60" as="geometry" />
        </mxCell>
        <mxCell id="XMBS7pqL-egp5hLZ02eN-9" value="" style="edgeStyle=orthogonalEdgeStyle;rounded=0;orthogonalLoop=1;jettySize=auto;html=1;fontFamily=Times New Roman;fontStyle=1;fontSize=15;" parent="1" source="XMBS7pqL-egp5hLZ02eN-6" target="XMBS7pqL-egp5hLZ02eN-8" edge="1">
          <mxGeometry relative="1" as="geometry" />
        </mxCell>
        <mxCell id="XMBS7pqL-egp5hLZ02eN-6" value="&lt;span style=&quot;white-space: normal; font-size: 15px;&quot;&gt;多视处理&lt;/span&gt;" style="rounded=0;whiteSpace=wrap;html=1;fontFamily=Times New Roman;fontStyle=1;fontSize=15;" parent="1" vertex="1">
          <mxGeometry x="59" y="210" width="120" height="60" as="geometry" />
        </mxCell>
        <mxCell id="XMBS7pqL-egp5hLZ02eN-11" value="" style="edgeStyle=orthogonalEdgeStyle;rounded=0;orthogonalLoop=1;jettySize=auto;html=1;fontFamily=Times New Roman;fontStyle=1;fontSize=15;" parent="1" source="XMBS7pqL-egp5hLZ02eN-8" target="XMBS7pqL-egp5hLZ02eN-10" edge="1">
          <mxGeometry relative="1" as="geometry" />
        </mxCell>
        <mxCell id="XMBS7pqL-egp5hLZ02eN-8" value="&lt;span style=&quot;white-space: normal; font-size: 15px;&quot;&gt;波形因子方程、均方波陡调整&lt;/span&gt;" style="rounded=0;whiteSpace=wrap;html=1;fontFamily=Times New Roman;fontStyle=1;fontSize=15;" parent="1" vertex="1">
          <mxGeometry x="59" y="300" width="120" height="60" as="geometry" />
        </mxCell>
        <mxCell id="XMBS7pqL-egp5hLZ02eN-13" value="" style="edgeStyle=orthogonalEdgeStyle;rounded=0;orthogonalLoop=1;jettySize=auto;html=1;fontFamily=Times New Roman;fontStyle=1;fontSize=15;" parent="1" source="XMBS7pqL-egp5hLZ02eN-10" target="XMBS7pqL-egp5hLZ02eN-12" edge="1">
          <mxGeometry relative="1" as="geometry" />
        </mxCell>
        <mxCell id="XMBS7pqL-egp5hLZ02eN-10" value="&lt;span style=&quot;white-space: normal; font-size: 15px;&quot;&gt;非线性回归最小二乘&lt;/span&gt;" style="rounded=0;whiteSpace=wrap;html=1;fontFamily=Times New Roman;fontStyle=1;fontSize=15;" parent="1" vertex="1">
          <mxGeometry x="44.5" y="390" width="149" height="60" as="geometry" />
        </mxCell>
        <mxCell id="XMBS7pqL-egp5hLZ02eN-15" value="" style="edgeStyle=orthogonalEdgeStyle;rounded=0;orthogonalLoop=1;jettySize=auto;html=1;fontFamily=Times New Roman;fontStyle=1;fontSize=15;" parent="1" source="XMBS7pqL-egp5hLZ02eN-12" target="XMBS7pqL-egp5hLZ02eN-14" edge="1">
          <mxGeometry relative="1" as="geometry" />
        </mxCell>
        <mxCell id="XMBS7pqL-egp5hLZ02eN-12" value="&lt;span style=&quot;white-space: normal; font-size: 15px;&quot;&gt;海面有效波高&lt;/span&gt;" style="rounded=0;whiteSpace=wrap;html=1;fontFamily=Times New Roman;fontStyle=1;fontSize=15;" parent="1" vertex="1">
          <mxGeometry x="59" y="480" width="120" height="60" as="geometry" />
        </mxCell>
        <mxCell id="XMBS7pqL-egp5hLZ02eN-57" style="edgeStyle=orthogonalEdgeStyle;rounded=0;orthogonalLoop=1;jettySize=auto;html=1;entryX=0;entryY=0.5;entryDx=0;entryDy=0;exitX=1;exitY=0.5;exitDx=0;exitDy=0;fontFamily=Times New Roman;fontStyle=1;fontSize=15;" parent="1" source="XMBS7pqL-egp5hLZ02eN-12" target="XMBS7pqL-egp5hLZ02eN-41" edge="1">
          <mxGeometry relative="1" as="geometry" />
        </mxCell>
        <mxCell id="XMBS7pqL-egp5hLZ02eN-14" value="&lt;span style=&quot;white-space: normal; font-size: 15px;&quot;&gt;验潮站数据对比&lt;/span&gt;" style="rounded=0;whiteSpace=wrap;html=1;fontFamily=Times New Roman;fontStyle=1;fontSize=15;" parent="1" vertex="1">
          <mxGeometry x="59" y="570" width="120" height="60" as="geometry" />
        </mxCell>
        <mxCell id="XMBS7pqL-egp5hLZ02eN-58" value="" style="edgeStyle=orthogonalEdgeStyle;rounded=0;orthogonalLoop=1;jettySize=auto;html=1;fontFamily=Times New Roman;fontStyle=1;fontSize=15;" parent="1" source="XMBS7pqL-egp5hLZ02eN-16" target="XMBS7pqL-egp5hLZ02eN-17" edge="1">
          <mxGeometry relative="1" as="geometry" />
        </mxCell>
        <mxCell id="XMBS7pqL-egp5hLZ02eN-16" value="CLS-CNES18MDT" style="shape=process;whiteSpace=wrap;html=1;backgroundOutline=1;fontFamily=Times New Roman;fontStyle=1;fontSize=15;" parent="1" vertex="1">
          <mxGeometry x="669" y="30" width="135" height="60" as="geometry" />
        </mxCell>
        <mxCell id="XMBS7pqL-egp5hLZ02eN-20" value="" style="edgeStyle=orthogonalEdgeStyle;rounded=0;orthogonalLoop=1;jettySize=auto;html=1;fontFamily=Times New Roman;fontStyle=1;fontSize=15;" parent="1" source="XMBS7pqL-egp5hLZ02eN-17" target="XMBS7pqL-egp5hLZ02eN-19" edge="1">
          <mxGeometry relative="1" as="geometry" />
        </mxCell>
        <mxCell id="XMBS7pqL-egp5hLZ02eN-17" value="能量谱分析" style="rounded=0;whiteSpace=wrap;html=1;fontFamily=Times New Roman;fontStyle=1;fontSize=15;" parent="1" vertex="1">
          <mxGeometry x="676.5" y="143" width="120" height="60" as="geometry" />
        </mxCell>
        <mxCell id="XMBS7pqL-egp5hLZ02eN-22" value="" style="edgeStyle=orthogonalEdgeStyle;rounded=0;orthogonalLoop=1;jettySize=auto;html=1;fontFamily=Times New Roman;fontStyle=1;fontSize=15;" parent="1" source="XMBS7pqL-egp5hLZ02eN-19" target="XMBS7pqL-egp5hLZ02eN-21" edge="1">
          <mxGeometry relative="1" as="geometry" />
        </mxCell>
        <mxCell id="XMBS7pqL-egp5hLZ02eN-19" value="多尺度小波分解、MDT参数化" style="rounded=0;whiteSpace=wrap;html=1;fontFamily=Times New Roman;fontStyle=1;fontSize=15;" parent="1" vertex="1">
          <mxGeometry x="676.5" y="255" width="120" height="60" as="geometry" />
        </mxCell>
        <mxCell id="XMBS7pqL-egp5hLZ02eN-24" style="edgeStyle=orthogonalEdgeStyle;rounded=0;orthogonalLoop=1;jettySize=auto;html=1;entryX=1;entryY=0.5;entryDx=0;entryDy=0;exitX=1;exitY=0.5;exitDx=0;exitDy=0;fontFamily=Times New Roman;fontStyle=1;fontSize=15;" parent="1" source="XMBS7pqL-egp5hLZ02eN-21" target="XMBS7pqL-egp5hLZ02eN-19" edge="1">
          <mxGeometry relative="1" as="geometry" />
        </mxCell>
        <mxCell id="XMBS7pqL-egp5hLZ02eN-28" value="" style="edgeStyle=orthogonalEdgeStyle;rounded=0;orthogonalLoop=1;jettySize=auto;html=1;fontFamily=Times New Roman;fontStyle=1;fontSize=15;" parent="1" source="XMBS7pqL-egp5hLZ02eN-21" target="XMBS7pqL-egp5hLZ02eN-27" edge="1">
          <mxGeometry relative="1" as="geometry" />
        </mxCell>
        <mxCell id="XMBS7pqL-egp5hLZ02eN-21" value="海洋数值模型验证、&lt;br style=&quot;font-size: 15px;&quot;&gt;精度评价" style="rhombus;whiteSpace=wrap;html=1;fontFamily=Times New Roman;fontStyle=1;fontSize=15;" parent="1" vertex="1">
          <mxGeometry x="646.5" y="345" width="180" height="100" as="geometry" />
        </mxCell>
        <mxCell id="XMBS7pqL-egp5hLZ02eN-54" style="edgeStyle=orthogonalEdgeStyle;rounded=0;orthogonalLoop=1;jettySize=auto;html=1;entryX=1;entryY=0.5;entryDx=0;entryDy=0;fontFamily=Times New Roman;fontStyle=1;fontSize=15;" parent="1" source="XMBS7pqL-egp5hLZ02eN-27" target="XMBS7pqL-egp5hLZ02eN-41" edge="1">
          <mxGeometry relative="1" as="geometry" />
        </mxCell>
        <mxCell id="XMBS7pqL-egp5hLZ02eN-27" value="最优参数化模型" style="rounded=0;whiteSpace=wrap;html=1;fontFamily=Times New Roman;fontStyle=1;fontSize=15;" parent="1" vertex="1">
          <mxGeometry x="676.5" y="490" width="120" height="60" as="geometry" />
        </mxCell>
        <mxCell id="XMBS7pqL-egp5hLZ02eN-51" style="edgeStyle=orthogonalEdgeStyle;rounded=0;orthogonalLoop=1;jettySize=auto;html=1;entryX=0.5;entryY=0;entryDx=0;entryDy=0;fontFamily=Times New Roman;fontStyle=1;fontSize=15;" parent="1" source="XMBS7pqL-egp5hLZ02eN-29" target="XMBS7pqL-egp5hLZ02eN-34" edge="1">
          <mxGeometry relative="1" as="geometry">
            <Array as="points">
              <mxPoint x="279" y="110" />
              <mxPoint x="429" y="110" />
            </Array>
          </mxGeometry>
        </mxCell>
        <mxCell id="XMBS7pqL-egp5hLZ02eN-29" value="验潮站、浮标等实测数据" style="shape=process;whiteSpace=wrap;html=1;backgroundOutline=1;fontFamily=Times New Roman;fontStyle=1;fontSize=15;" parent="1" vertex="1">
          <mxGeometry x="220" y="30" width="129" height="60" as="geometry" />
        </mxCell>
        <mxCell id="XMBS7pqL-egp5hLZ02eN-33" value="" style="edgeStyle=orthogonalEdgeStyle;rounded=0;orthogonalLoop=1;jettySize=auto;html=1;entryX=0.5;entryY=0;entryDx=0;entryDy=0;fontFamily=Times New Roman;fontStyle=1;fontSize=15;" parent="1" source="XMBS7pqL-egp5hLZ02eN-30" target="XMBS7pqL-egp5hLZ02eN-34" edge="1">
          <mxGeometry relative="1" as="geometry">
            <mxPoint x="429" y="120" as="targetPoint" />
          </mxGeometry>
        </mxCell>
        <mxCell id="XMBS7pqL-egp5hLZ02eN-30" value="MSS模型" style="shape=process;whiteSpace=wrap;html=1;backgroundOutline=1;fontFamily=Times New Roman;fontStyle=1;fontSize=15;" parent="1" vertex="1">
          <mxGeometry x="369" y="30" width="120" height="60" as="geometry" />
        </mxCell>
        <mxCell id="XMBS7pqL-egp5hLZ02eN-52" style="edgeStyle=orthogonalEdgeStyle;rounded=0;orthogonalLoop=1;jettySize=auto;html=1;entryX=0.5;entryY=0;entryDx=0;entryDy=0;fontFamily=Times New Roman;fontStyle=1;fontSize=15;" parent="1" source="XMBS7pqL-egp5hLZ02eN-31" target="XMBS7pqL-egp5hLZ02eN-34" edge="1">
          <mxGeometry relative="1" as="geometry">
            <mxPoint x="429" y="120" as="targetPoint" />
            <Array as="points">
              <mxPoint x="579" y="110" />
              <mxPoint x="429" y="110" />
            </Array>
          </mxGeometry>
        </mxCell>
        <mxCell id="XMBS7pqL-egp5hLZ02eN-31" value="&lt;span style=&quot;white-space: normal; font-size: 15px;&quot;&gt;GGM模型&lt;/span&gt;" style="shape=process;whiteSpace=wrap;html=1;backgroundOutline=1;fontFamily=Times New Roman;fontSize=15;fontColor=#000000;align=center;strokeColor=#000000;fillColor=#ffffff;fontStyle=1" parent="1" vertex="1">
          <mxGeometry x="509" y="30" width="120" height="60" as="geometry" />
        </mxCell>
        <mxCell id="XMBS7pqL-egp5hLZ02eN-36" value="" style="edgeStyle=orthogonalEdgeStyle;rounded=0;orthogonalLoop=1;jettySize=auto;html=1;fontFamily=Times New Roman;fontStyle=1;fontSize=15;" parent="1" source="XMBS7pqL-egp5hLZ02eN-34" target="XMBS7pqL-egp5hLZ02eN-35" edge="1">
          <mxGeometry relative="1" as="geometry" />
        </mxCell>
        <mxCell id="XMBS7pqL-egp5hLZ02eN-34" value="&lt;span style=&quot;white-space: normal; font-size: 15px;&quot;&gt;基准统一、噪声剔除&lt;/span&gt;" style="rounded=0;whiteSpace=wrap;html=1;fontFamily=Times New Roman;fontStyle=1;fontSize=15;" parent="1" vertex="1">
          <mxGeometry x="369" y="165" width="120" height="60" as="geometry" />
        </mxCell>
        <mxCell id="XMBS7pqL-egp5hLZ02eN-38" value="" style="edgeStyle=orthogonalEdgeStyle;rounded=0;orthogonalLoop=1;jettySize=auto;html=1;entryX=0.5;entryY=0;entryDx=0;entryDy=0;fontFamily=Times New Roman;fontStyle=1;fontSize=15;" parent="1" source="XMBS7pqL-egp5hLZ02eN-35" target="XMBS7pqL-egp5hLZ02eN-41" edge="1">
          <mxGeometry relative="1" as="geometry">
            <mxPoint x="429" y="345" as="targetPoint" />
          </mxGeometry>
        </mxCell>
        <mxCell id="XMBS7pqL-egp5hLZ02eN-35" value="&lt;span style=&quot;white-space: normal; font-size: 15px;&quot;&gt;反距离加权、协方差函数构建误差模型&lt;/span&gt;" style="rounded=0;whiteSpace=wrap;html=1;fontFamily=Times New Roman;fontStyle=1;fontSize=15;" parent="1" vertex="1">
          <mxGeometry x="349" y="300" width="160" height="60" as="geometry" />
        </mxCell>
        <mxCell id="XMBS7pqL-egp5hLZ02eN-49" style="edgeStyle=orthogonalEdgeStyle;rounded=0;orthogonalLoop=1;jettySize=auto;html=1;exitX=0.5;exitY=1;exitDx=0;exitDy=0;fontFamily=Times New Roman;fontStyle=1;fontSize=15;" parent="1" source="XMBS7pqL-egp5hLZ02eN-41" target="XMBS7pqL-egp5hLZ02eN-47" edge="1">
          <mxGeometry relative="1" as="geometry">
            <mxPoint x="429" y="550" as="sourcePoint" />
            <Array as="points">
              <mxPoint x="429" y="540" />
              <mxPoint x="579" y="540" />
            </Array>
          </mxGeometry>
        </mxCell>
        <mxCell id="XMBS7pqL-egp5hLZ02eN-50" style="edgeStyle=orthogonalEdgeStyle;rounded=0;orthogonalLoop=1;jettySize=auto;html=1;exitX=0.5;exitY=1;exitDx=0;exitDy=0;fontFamily=Times New Roman;fontStyle=1;fontSize=15;" parent="1" source="XMBS7pqL-egp5hLZ02eN-41" target="XMBS7pqL-egp5hLZ02eN-45" edge="1">
          <mxGeometry relative="1" as="geometry">
            <mxPoint x="429" y="550" as="sourcePoint" />
            <Array as="points">
              <mxPoint x="429" y="540" />
              <mxPoint x="279" y="540" />
            </Array>
          </mxGeometry>
        </mxCell>
        <mxCell id="XMBS7pqL-egp5hLZ02eN-59" value="" style="edgeStyle=orthogonalEdgeStyle;rounded=0;orthogonalLoop=1;jettySize=auto;html=1;fontFamily=Times New Roman;fontStyle=1;fontSize=15;" parent="1" source="XMBS7pqL-egp5hLZ02eN-41" target="XMBS7pqL-egp5hLZ02eN-43" edge="1">
          <mxGeometry relative="1" as="geometry" />
        </mxCell>
        <mxCell id="XMBS7pqL-egp5hLZ02eN-41" value="&lt;span style=&quot;white-space: normal; font-size: 15px;&quot;&gt;最小二乘估计、&lt;br style=&quot;font-size: 15px;&quot;&gt;正则化处理&lt;br style=&quot;font-size: 15px;&quot;&gt;&lt;/span&gt;" style="rounded=0;whiteSpace=wrap;html=1;fontFamily=Times New Roman;fontStyle=1;fontSize=15;" parent="1" vertex="1">
          <mxGeometry x="369" y="435" width="120" height="60" as="geometry" />
        </mxCell>
        <mxCell id="XMBS7pqL-egp5hLZ02eN-43" value="精化MDT及误差分布" style="rounded=0;whiteSpace=wrap;html=1;fontFamily=Times New Roman;fontStyle=1;fontSize=15;" parent="1" vertex="1">
          <mxGeometry x="369" y="570" width="120" height="60" as="geometry" />
        </mxCell>
        <mxCell id="XMBS7pqL-egp5hLZ02eN-47" value="海洋环流分析" style="rounded=0;whiteSpace=wrap;html=1;fontFamily=Times New Roman;fontStyle=1;fontSize=15;" parent="1" vertex="1">
          <mxGeometry x="509" y="570" width="120" height="60" as="geometry" />
        </mxCell>
        <mxCell id="XMBS7pqL-egp5hLZ02eN-45" value="&lt;span style=&quot;white-space: normal; font-size: 15px;&quot;&gt;外部数据检核&lt;/span&gt;" style="rounded=0;whiteSpace=wrap;html=1;fontFamily=Times New Roman;fontStyle=1;fontSize=15;" parent="1" vertex="1">
          <mxGeometry x="229" y="570" width="120" height="60" as="geometry" />
        </mxCell>
      </root>
    </mxGraphModel>
  </diagram>
</mxfile>
